<svg width="285" height="150" viewBox="0 0 285 150" fill="none" xmlns="http://www.w3.org/2000/svg">
<path d="M243.647 145.852C255.538 132.885 271.005 98.2423 248.136 59.6537C223.423 17.9517 137.423 -9.66213 81.0664 19.074C24.7103 47.8102 36.2688 123.494 44.0225 145.852H243.647V145.852Z" fill="url(#paint0_linear_564_94)"/>
<path d="M20.1427 145.852C20.1427 145.852 12.1837 124.762 23.7334 110.634C41.105 89.3866 79.5591 109.971 105.98 91.6615C132.401 73.3522 181.414 49.918 229.469 72.1461C277.525 94.3743 269.567 134.092 266.695 145.852H20.1427Z" fill="#14316C"/>
<path d="M11.0959 25.3762C19.115 25.5844 47.3124 25.6498 55.0039 25.2541C62.6955 24.8585 61.8924 21.4785 57.7151 21.0785C53.5382 20.6786 55.1687 17.2907 49.9769 18.2745C44.7852 19.2584 43.532 19.2564 38.7216 14.4758C33.9111 9.69518 25.4908 9.18801 22.3922 14.4758C20.2303 18.165 19.2984 19.874 14.8889 18.6111C10.4794 17.3482 7.81303 20.1111 6.51856 21.4976C5.36802 22.7304 1.20328 22.314 1.00327 23.9075C0.802812 25.501 9.89235 25.3453 11.0959 25.3762Z" fill="url(#paint1_linear_564_94)"/>
<path d="M203.259 145.852C203.259 145.852 204.738 140.683 188.347 132.024C171.956 123.365 167.935 104.497 141.801 104.756C115.668 105.014 107.483 137.064 114.088 145.852H203.259V145.852Z" fill="url(#paint2_linear_564_94)"/>
<g filter="url(#filter0_d_564_94)">
<path d="M83.3411 145.852C83.3411 145.852 84.7969 125.693 76.1339 112.574C65.519 96.4985 68.511 81.4683 82.4236 84.4053C93.1107 86.6614 93.0555 126.957 92.9768 145.852H83.3411Z" fill="url(#paint3_linear_564_94)"/>
<path d="M77.0737 96.498C77.0737 96.498 91.5468 114.433 88.2974 145.852" stroke="#F9F9F9" stroke-width="0.436982" stroke-miterlimit="10" stroke-linecap="round"/>
<path d="M59.5254 145.852C62.6592 136.687 60.4655 124.701 48.7144 116.381C36.9633 108.061 51.8478 98.3312 64.6955 103.972C77.5432 109.612 87.7272 126.251 84.2803 145.852H59.5254V145.852Z" fill="url(#paint4_linear_564_94)"/>
<path d="M61.8755 114.971C61.8755 114.971 76.1333 127.238 73.3131 145.852" stroke="#F9F9F9" stroke-width="0.436982" stroke-miterlimit="10" stroke-linecap="round"/>
</g>
<g filter="url(#filter1_d_564_94)">
<path d="M97.1281 76.4745H89.3726V145.852H97.1281V76.4745Z" fill="#423F63"/>
<path d="M71.9471 49.9294C67.2745 49.9294 63.4863 53.3388 63.4863 57.5441V76.4749H71.9471H115.543V49.9294H71.9471Z" fill="#407AFF"/>
<path d="M124.004 76.4746H107.083V57.5439C107.083 53.3386 110.871 49.9292 115.543 49.9292C120.216 49.9292 124.004 53.3386 124.004 57.5439L124.004 76.4746Z" fill="#A1BEFF"/>
<path d="M125.688 76.4746H108.767V57.5439C108.767 53.3386 112.555 49.9292 117.228 49.9292C121.9 49.9292 125.689 53.3386 125.689 57.5439V76.4746H125.688Z" fill="#163EA7"/>
<path d="M107.082 76.4745H63.4863V78.378H107.082V76.4745Z" fill="#A1BEFF"/>
<path d="M124.004 76.4745H107.083V78.378H124.004V76.4745Z" fill="#163EA7"/>
<path d="M98.5432 64.9825C100.36 64.9825 101.834 63.6567 101.834 62.0212C101.834 60.3857 100.36 59.0599 98.5432 59.0599C96.7261 59.0599 95.2529 60.3857 95.2529 62.0212C95.2529 63.6567 96.7261 64.9825 98.5432 64.9825Z" fill="#A9BCFF"/>
<path d="M100.622 47.0007C100.622 46.1636 99.8682 45.4846 98.9377 45.4846H92.6284C91.6983 45.4846 90.9443 46.1632 90.9443 47.0007V49.4008C90.9443 50.2378 91.6983 50.9164 92.6284 50.9164H96.4636V62.0211C96.4636 63.0546 97.3945 63.8925 98.5429 63.8925C99.6912 63.8925 100.622 63.0546 100.622 62.0211V47.0007Z" fill="#B5D7FF"/>
</g>
<g filter="url(#filter2_d_564_94)">
<path d="M121.575 145.852C132.073 137.251 125.022 120.047 135.52 113.138C146.017 106.228 152.754 98.1904 145.704 91.14C138.653 84.0896 94.3128 101.716 96.1934 145.852H121.575Z" fill="url(#paint5_linear_564_94)"/>
<path d="M131.68 103.125C131.68 103.125 107.872 117.791 108.299 145.852" stroke="#F9F9F9" stroke-width="0.436982" stroke-miterlimit="10" stroke-linecap="round"/>
<path d="M104.184 145.852C102.774 127.662 107.788 108.484 117.815 95.2292C127.842 81.9741 117.501 76.4745 106.22 86.6275C95.1359 96.6035 89.4167 121.175 92.9614 145.852H104.184Z" fill="url(#paint6_linear_564_94)"/>
<path d="M108.885 96.4983C108.885 96.4983 93.5303 117.932 96.1936 145.852" stroke="#F9F9F9" stroke-width="0.436982" stroke-miterlimit="10" stroke-linecap="round"/>
</g>
<g filter="url(#filter3_d_564_94)">
<path d="M215.455 53.1257H191.133V65.7167V130.559H219.277V145.852H223.607V130.559H239.269V145.852H243.599V78.4549C243.599 64.466 230.999 53.1257 215.455 53.1257Z" fill="#B5D7FF"/>
<path d="M239.269 130.559H234.938V145.852H239.269V130.559Z" fill="#A9BCFF"/>
<path d="M239.268 91.6615H223.606V128.599H239.268V91.6615Z" stroke="#4255FB" stroke-width="0.65551" stroke-miterlimit="10"/>
</g>
<path d="M194.953 130.559H190.623V145.852H194.953V130.559Z" fill="#B5D7FF"/>
<path d="M190.623 130.559H186.292V145.852H190.623V130.559Z" fill="#A9BCFF"/>
<path d="M191.132 53.1257C175.589 53.1257 162.988 64.4664 162.988 78.4553V145.852H170.632V130.56H211.633V145.852H219.277V78.4553C219.276 64.466 206.675 53.1257 191.132 53.1257Z" fill="#A9BCFF"/>
<path d="M174.962 130.559H170.631V145.852H174.962V130.559Z" fill="#B5D7FF"/>
<path d="M211.633 85.1123H170.631V89.7016H211.633V85.1123Z" fill="#2D3648"/>
<path d="M211.633 85.1123H170.631V89.7016H211.633V85.1123Z" stroke="#4255FB" stroke-width="0.65551" stroke-miterlimit="10"/>
<path d="M211.632 128.599V91.6615H170.63V128.599H211.632Z" stroke="#4255FB" stroke-width="0.65551" stroke-miterlimit="10"/>
<path d="M178.853 102.366L177.486 97.5508H177.444C177.508 98.3709 177.54 99.0081 177.54 99.4624V102.366H175.94V95.6803H178.345L179.74 100.427H179.777L181.144 95.6803H183.554V102.366H181.894V99.4349C181.894 99.2825 181.896 99.1133 181.899 98.9273C181.905 98.7413 181.926 98.2855 181.963 97.5599H181.922L180.572 102.366H178.853ZM189.097 102.366L188.768 101.113H186.595L186.257 102.366H184.272L186.454 95.6529H188.864L191.073 102.366H189.097ZM188.393 99.6316L188.105 98.534C188.037 98.2901 187.955 97.9745 187.858 97.5873C187.763 97.2002 187.701 96.9227 187.67 96.755C187.643 96.9105 187.588 97.1666 187.505 97.5233C187.426 97.88 187.248 98.5828 186.97 99.6316H188.393ZM191.8 102.366V95.6803H193.615V102.366H191.8ZM195.065 102.366V95.6803H196.871V100.907H199.446V102.366H195.065Z" fill="#4255FB"/>
<path d="M161.538 21.1189C164.762 10.9816 176.68 0.761732 196.927 0.901441C221.398 1.0705 223.779 36.3111 213.009 37.0868C202.24 37.862 206.891 6.71716 234.648 10.2064C262.405 13.6955 267.431 51.9918 262.118 66.7672C256.805 81.5427 239 102.479 239 102.479" stroke="#4B57B5" stroke-width="0.624393" stroke-miterlimit="10" stroke-linecap="round" stroke-linejoin="round" stroke-dasharray="1.87 3.75 1.87 3.75 1.87 3.75"/>
<g filter="url(#filter4_d_564_94)">
<path d="M152.014 18.1242L142.595 42.3582L159.763 47.7633L169.182 23.5294L152.014 18.1242Z" fill="#EDF2FE"/>
<path d="M142.593 42.3546L157.535 33.6324L152.012 18.1205L142.593 42.3546Z" fill="#DDE7FF"/>
<path d="M142.593 42.3546L155.887 32.9402L152.012 18.1205L142.593 42.3546Z" fill="#EDF2FE"/>
</g>
<path d="M243.382 107.675C250.145 112.707 263.541 121.471 284.271 119.634" stroke="#4B57B5" stroke-width="0.624393" stroke-miterlimit="10" stroke-linecap="round" stroke-linejoin="round" stroke-dasharray="1.87 3.75 1.87 3.75 1.87 3.75"/>
<g filter="url(#filter5_d_564_94)">
<path d="M248.564 100.833L224.998 86.3652L214.749 99.888L238.315 114.355L248.564 100.833Z" fill="#EDF2FE"/>
<path d="M225 86.3683L230.488 101.617L248.567 100.836L225 86.3683Z" fill="#DDE7FF"/>
<path d="M225 86.3683L231.659 100.363L248.567 100.836L225 86.3683Z" fill="#EDF2FE"/>
</g>
<g filter="url(#filter6_d_564_94)">
<path d="M77.5212 41.1296L53.4102 54.85L63.1299 68.6854L87.241 54.965L77.5212 41.1296Z" fill="#EDF2FE"/>
<path d="M53.4121 54.8544L71.1416 56.3775L77.5244 41.1348L53.4121 54.8544Z" fill="#DDE7FF"/>
<path d="M53.4121 54.8544L70.328 54.9127L77.5244 41.1348L53.4121 54.8544Z" fill="#EDF2FE"/>
</g>
<path d="M58.4617 62.0415C58.1508 62.211 57.8447 62.3863 57.5425 62.5667" stroke="#4B57B5" stroke-width="0.624393" stroke-linecap="round" stroke-linejoin="round"/>
<path d="M53.6396 65.3319C50.5923 67.8169 47.9069 70.7258 45.1001 73.4542" stroke="#4B57B5" stroke-width="0.624393" stroke-linecap="round" stroke-linejoin="round" stroke-dasharray="2.14 4.28 2.14 4.28"/>
<path d="M43.3863 75.0747C37.3892 80.5629 30.4411 84.7338 18.1578 82.095C12.6599 80.9139 8.23995 79.583 4.38916 78.414" stroke="#4B57B5" stroke-width="0.624393" stroke-linecap="round" stroke-linejoin="round" stroke-dasharray="2.14 4.28 2.14 4.28 2.14 4.28"/>
<path d="M2.03412 77.7018C1.68582 77.5977 1.34144 77.4952 1.00098 77.3954" stroke="#4B57B5" stroke-width="0.624393" stroke-linecap="round" stroke-linejoin="round"/>
<defs>
<filter id="filter0_d_564_94" x="42.6853" y="84.0354" width="52.0644" height="65.5554" filterUnits="userSpaceOnUse" color-interpolation-filters="sRGB">
<feFlood flood-opacity="0" result="BackgroundImageFix"/>
<feColorMatrix in="SourceAlpha" type="matrix" values="0 0 0 0 0 0 0 0 0 0 0 0 0 0 0 0 0 0 127 0" result="hardAlpha"/>
<feOffset dy="1.76"/>
<feGaussianBlur stdDeviation="0.88"/>
<feComposite in2="hardAlpha" operator="out"/>
<feColorMatrix type="matrix" values="0 0 0 0 0 0 0 0 0 0 0 0 0 0 0 0 0 0 0.25 0"/>
<feBlend mode="normal" in2="BackgroundImageFix" result="effect1_dropShadow_564_94"/>
<feBlend mode="normal" in="SourceGraphic" in2="effect1_dropShadow_564_94" result="shape"/>
</filter>
<filter id="filter1_d_564_94" x="61.7263" y="45.4846" width="65.7221" height="103.887" filterUnits="userSpaceOnUse" color-interpolation-filters="sRGB">
<feFlood flood-opacity="0" result="BackgroundImageFix"/>
<feColorMatrix in="SourceAlpha" type="matrix" values="0 0 0 0 0 0 0 0 0 0 0 0 0 0 0 0 0 0 127 0" result="hardAlpha"/>
<feOffset dy="1.76"/>
<feGaussianBlur stdDeviation="0.88"/>
<feComposite in2="hardAlpha" operator="out"/>
<feColorMatrix type="matrix" values="0 0 0 0 0 0 0 0 0 0 0 0 0 0 0 0 0 0 0.25 0"/>
<feBlend mode="normal" in2="BackgroundImageFix" result="effect1_dropShadow_564_94"/>
<feBlend mode="normal" in="SourceGraphic" in2="effect1_dropShadow_564_94" result="shape"/>
</filter>
<filter id="filter2_d_564_94" x="90.155" y="81.379" width="60.2095" height="68.2118" filterUnits="userSpaceOnUse" color-interpolation-filters="sRGB">
<feFlood flood-opacity="0" result="BackgroundImageFix"/>
<feColorMatrix in="SourceAlpha" type="matrix" values="0 0 0 0 0 0 0 0 0 0 0 0 0 0 0 0 0 0 127 0" result="hardAlpha"/>
<feOffset dy="1.76"/>
<feGaussianBlur stdDeviation="0.88"/>
<feComposite in2="hardAlpha" operator="out"/>
<feColorMatrix type="matrix" values="0 0 0 0 0 0 0 0 0 0 0 0 0 0 0 0 0 0 0.25 0"/>
<feBlend mode="normal" in2="BackgroundImageFix" result="effect1_dropShadow_564_94"/>
<feBlend mode="normal" in="SourceGraphic" in2="effect1_dropShadow_564_94" result="shape"/>
</filter>
<filter id="filter3_d_564_94" x="189.373" y="53.1257" width="55.9863" height="96.2458" filterUnits="userSpaceOnUse" color-interpolation-filters="sRGB">
<feFlood flood-opacity="0" result="BackgroundImageFix"/>
<feColorMatrix in="SourceAlpha" type="matrix" values="0 0 0 0 0 0 0 0 0 0 0 0 0 0 0 0 0 0 127 0" result="hardAlpha"/>
<feOffset dy="1.76"/>
<feGaussianBlur stdDeviation="0.88"/>
<feComposite in2="hardAlpha" operator="out"/>
<feColorMatrix type="matrix" values="0 0 0 0 0 0 0 0 0 0 0 0 0 0 0 0 0 0 0.25 0"/>
<feBlend mode="normal" in2="BackgroundImageFix" result="effect1_dropShadow_564_94"/>
<feBlend mode="normal" in="SourceGraphic" in2="effect1_dropShadow_564_94" result="shape"/>
</filter>
<filter id="filter4_d_564_94" x="140.833" y="18.1205" width="30.1094" height="33.1628" filterUnits="userSpaceOnUse" color-interpolation-filters="sRGB">
<feFlood flood-opacity="0" result="BackgroundImageFix"/>
<feColorMatrix in="SourceAlpha" type="matrix" values="0 0 0 0 0 0 0 0 0 0 0 0 0 0 0 0 0 0 127 0" result="hardAlpha"/>
<feOffset dy="1.76"/>
<feGaussianBlur stdDeviation="0.88"/>
<feComposite in2="hardAlpha" operator="out"/>
<feColorMatrix type="matrix" values="0 0 0 0 0 0 0 0 0 0 0 0 0 0 0 0 0 0 0.25 0"/>
<feBlend mode="normal" in2="BackgroundImageFix" result="effect1_dropShadow_564_94"/>
<feBlend mode="normal" in="SourceGraphic" in2="effect1_dropShadow_564_94" result="shape"/>
</filter>
<filter id="filter5_d_564_94" x="212.989" y="86.3652" width="37.3379" height="31.5102" filterUnits="userSpaceOnUse" color-interpolation-filters="sRGB">
<feFlood flood-opacity="0" result="BackgroundImageFix"/>
<feColorMatrix in="SourceAlpha" type="matrix" values="0 0 0 0 0 0 0 0 0 0 0 0 0 0 0 0 0 0 127 0" result="hardAlpha"/>
<feOffset dy="1.76"/>
<feGaussianBlur stdDeviation="0.88"/>
<feComposite in2="hardAlpha" operator="out"/>
<feColorMatrix type="matrix" values="0 0 0 0 0 0 0 0 0 0 0 0 0 0 0 0 0 0 0.25 0"/>
<feBlend mode="normal" in2="BackgroundImageFix" result="effect1_dropShadow_564_94"/>
<feBlend mode="normal" in="SourceGraphic" in2="effect1_dropShadow_564_94" result="shape"/>
</filter>
<filter id="filter6_d_564_94" x="51.6502" y="41.1296" width="37.3506" height="31.0758" filterUnits="userSpaceOnUse" color-interpolation-filters="sRGB">
<feFlood flood-opacity="0" result="BackgroundImageFix"/>
<feColorMatrix in="SourceAlpha" type="matrix" values="0 0 0 0 0 0 0 0 0 0 0 0 0 0 0 0 0 0 127 0" result="hardAlpha"/>
<feOffset dy="1.76"/>
<feGaussianBlur stdDeviation="0.88"/>
<feComposite in2="hardAlpha" operator="out"/>
<feColorMatrix type="matrix" values="0 0 0 0 0 0 0 0 0 0 0 0 0 0 0 0 0 0 0.25 0"/>
<feBlend mode="normal" in2="BackgroundImageFix" result="effect1_dropShadow_564_94"/>
<feBlend mode="normal" in="SourceGraphic" in2="effect1_dropShadow_564_94" result="shape"/>
</filter>
<linearGradient id="paint0_linear_564_94" x1="37.4679" y1="76.5547" x2="259.901" y2="76.5547" gradientUnits="userSpaceOnUse">
<stop offset="1" stop-color="#C2D7FF"/>
</linearGradient>
<linearGradient id="paint1_linear_564_94" x1="0.999874" y1="18.1202" x2="60.8393" y2="18.1202" gradientUnits="userSpaceOnUse">
<stop offset="0.004" stop-color="#D8E3FF"/>
<stop offset="1" stop-color="#D2DFFF"/>
</linearGradient>
<linearGradient id="paint2_linear_564_94" x1="138.368" y1="159.82" x2="168.645" y2="112.837" gradientUnits="userSpaceOnUse">
<stop stop-color="#B6CCBD"/>
<stop offset="1" stop-color="#D1E7D9"/>
</linearGradient>
<linearGradient id="paint3_linear_564_94" x1="79.2379" y1="92.976" x2="86.6701" y2="146.468" gradientUnits="userSpaceOnUse">
<stop stop-color="#60BEC8"/>
<stop offset="1" stop-color="#4BA5AA"/>
</linearGradient>
<linearGradient id="paint4_linear_564_94" x1="74.2693" y1="145.769" x2="63.1935" y2="109.958" gradientUnits="userSpaceOnUse">
<stop stop-color="#B6CCBD"/>
<stop offset="1" stop-color="#D1E7D9"/>
</linearGradient>
<linearGradient id="paint5_linear_564_94" x1="132.424" y1="99.1571" x2="109.013" y2="145.878" gradientUnits="userSpaceOnUse">
<stop stop-color="#60BEC8"/>
<stop offset="1" stop-color="#4BA5AA"/>
</linearGradient>
<linearGradient id="paint6_linear_564_94" x1="95.3684" y1="147.55" x2="106.22" y2="95.7915" gradientUnits="userSpaceOnUse">
<stop stop-color="#B6CCBD"/>
<stop offset="1" stop-color="#D1E7D9"/>
</linearGradient>
</defs>
</svg>