<svg width="159" height="22" viewBox="0 0 159 22" fill="none" xmlns="http://www.w3.org/2000/svg">
<path d="M21.8068 10.7754C21.8068 13.9554 20.6506 16.6054 18.3382 18.7254L20.8201 21.2754H17.9794L16.6936 19.9554C15.039 20.9754 13.2648 21.4854 11.371 21.4854C8.67982 21.4854 6.25775 20.4654 4.1048 18.4254C1.97178 16.3654 0.905273 13.8154 0.905273 10.7754C0.905273 7.73543 1.97178 5.19543 4.1048 3.15543C6.25775 1.09543 8.67982 0.0654297 11.371 0.0654297C14.122 0.0654297 16.5441 1.08543 18.6372 3.12543C20.7503 5.16543 21.8068 7.71543 21.8068 10.7754ZM11.371 19.1154C12.7066 19.1154 13.9127 18.8154 14.9892 18.2154L10.5636 13.6554H13.4043L16.6637 17.0154C18.3382 15.3954 19.1754 13.3154 19.1754 10.7754C19.1754 8.33543 18.408 6.33543 16.873 4.77543C15.358 3.19543 13.524 2.40543 11.371 2.40543C9.33766 2.40543 7.5236 3.19543 5.92882 4.77543C4.35398 6.35543 3.56656 8.35543 3.56656 10.7754C3.56656 13.1754 4.35398 15.1654 5.92882 16.7454C7.5236 18.3254 9.33766 19.1154 11.371 19.1154Z" fill="white"/>
<path d="M37.7993 5.67543H40.1915V21.2754H37.7993V17.4954C37.6 18.3554 37.0019 19.2354 36.0052 20.1354C35.0084 21.0354 33.7526 21.4854 32.2375 21.4854C30.563 21.4854 29.1775 20.9454 28.0811 19.8654C26.9847 18.7854 26.4365 17.1154 26.4365 14.8554V5.67543H28.8287V14.7954C28.8287 16.3754 29.1676 17.5354 29.8454 18.2754C30.5231 19.0154 31.4401 19.3854 32.5963 19.3854C33.8921 19.3854 35.0184 18.8854 35.9753 17.8854C36.9321 16.8654 37.5402 15.7654 37.7993 14.5854V5.67543Z" fill="white"/>
<path d="M47.7924 0.275429V2.52543H45.3704V0.275429H47.7924ZM47.7924 5.67543V21.2754H45.3704V5.67543H47.7924Z" fill="white"/>
<path d="M55.6207 0.275429V21.2754H53.1987V0.275429H55.6207Z" fill="white"/>
<path d="M63.3065 0.275429V21.2754H60.8844V0.275429H63.3065Z" fill="white"/>
<path d="M84.6276 21.2754L82.0261 15.4254H72.6967L70.0952 21.2754H67.4339L77.0923 0.275429H77.6305L87.259 21.2754H84.6276ZM73.6236 13.3254H81.0992L77.3614 4.86543L73.6236 13.3254Z" fill="white"/>
<path d="M102.363 5.67543H104.755V21.2754H102.363V17.4954C102.164 18.3554 101.566 19.2354 100.569 20.1354C99.5724 21.0354 98.3166 21.4854 96.8015 21.4854C95.127 21.4854 93.7415 20.9454 92.6451 19.8654C91.5487 18.7854 91.0005 17.1154 91.0005 14.8554V5.67543H93.3927V14.7954C93.3927 16.3754 93.7316 17.5354 94.4093 18.2754C95.0871 19.0154 96.0041 19.3854 97.1603 19.3854C98.4561 19.3854 99.5824 18.8854 100.539 17.8854C101.496 16.8654 102.104 15.7654 102.363 14.5854V5.67543Z" fill="white"/>
<path d="M121.955 0.275429H124.347V21.2754H121.955V18.2154C121.536 19.1754 120.839 19.9654 119.862 20.5854C118.885 21.1854 117.799 21.4854 116.603 21.4854C114.729 21.4854 113.034 20.7754 111.519 19.3554C110.004 17.9354 109.247 15.9754 109.247 13.4754C109.247 12.1954 109.476 11.0354 109.934 9.99543C110.393 8.93543 110.981 8.09543 111.699 7.47543C112.416 6.83543 113.194 6.34543 114.031 6.00543C114.888 5.66543 115.745 5.49543 116.603 5.49543C117.819 5.49543 118.915 5.78543 119.892 6.36543C120.869 6.94543 121.556 7.70543 121.955 8.64543V0.275429ZM113.253 17.8254C114.33 18.8654 115.546 19.3854 116.902 19.3854C118.257 19.3854 119.453 18.8854 120.49 17.8854C121.526 16.8654 122.045 15.3954 122.045 13.4754C122.045 11.5554 121.526 10.0954 120.49 9.09543C119.453 8.09543 118.257 7.59543 116.902 7.59543C115.546 7.59543 114.33 8.11543 113.253 9.15543C112.177 10.1954 111.639 11.6354 111.639 13.4754C111.639 15.3154 112.177 16.7654 113.253 17.8254Z" fill="white"/>
<path d="M131.781 0.275429V2.52543H129.359V0.275429H131.781ZM131.781 5.67543V21.2754H129.359V5.67543H131.781Z" fill="white"/>
<path d="M141.822 19.3554C142.5 19.3554 143.188 19.1954 143.885 18.8754V20.9154C143.168 21.2754 142.281 21.4554 141.224 21.4554C139.211 21.4554 138.204 20.3454 138.204 18.1254V7.65543H136.29V5.67543H138.204V2.97543H140.596V5.67543H143.855V7.65543H140.596V17.9154C140.596 18.8754 141.005 19.3554 141.822 19.3554Z" fill="white"/>
<path d="M156.157 9.39543C155.459 8.15543 154.422 7.53543 153.047 7.53543C152.289 7.53543 151.671 7.73543 151.193 8.13543C150.734 8.51543 150.505 8.98543 150.505 9.54543C150.505 10.0654 150.665 10.5054 150.984 10.8654C151.323 11.2254 151.901 11.5454 152.718 11.8254L154.303 12.3954C155.838 12.9354 156.984 13.5254 157.742 14.1654C158.499 14.8054 158.878 15.7454 158.878 16.9854C158.878 18.3454 158.29 19.4354 157.114 20.2554C155.937 21.0754 154.622 21.4854 153.166 21.4854C151.791 21.4854 150.535 21.1154 149.399 20.3754C148.263 19.6354 147.525 18.6454 147.186 17.4054L149.279 16.8354C149.538 17.6154 150.037 18.2454 150.774 18.7254C151.512 19.1854 152.309 19.4154 153.166 19.4154C154.004 19.4154 154.751 19.1954 155.409 18.7554C156.067 18.2954 156.396 17.7054 156.396 16.9854C156.396 16.3654 156.187 15.8554 155.768 15.4554C155.349 15.0554 154.711 14.7054 153.854 14.4054L152.06 13.7754C150.625 13.2554 149.598 12.6754 148.98 12.0354C148.362 11.3954 148.053 10.5754 148.053 9.57543C148.053 8.41543 148.532 7.44543 149.489 6.66543C150.465 5.88543 151.641 5.49543 153.017 5.49543C155.509 5.49543 157.283 6.60543 158.34 8.82543L156.157 9.39543Z" fill="white"/>
</svg>